# xmcd
#
# Track frame offsets:
#	150
#	12525
#	24854
#	37039
#	49244
#	60447
#	72920
#	85068
#	97087
#	110567
#	123987
#	137227
#	157598
#	168411
#	180143
#	193802
#	206850
#	219724
#	233346
#	245466
#	257694
#	267636
#	279200
#	290554
#	300633
#	312131
#
# Disc length: 4317 seconds
#
# Revision: 0
# Processed by: cddbd v1.5.1PL2 Copyright (c) Steve Scherf et al.
# Submitted via: dBpowerAMP V4.0
#
DISCID=7010db1a
DTITLE=Various Artist - Rock n' Roll Roots: The R&B Influence
DYEAR=2005
DGENRE=R&B
TTITLE0=Helen Humes with Bill Doggett's Octet - Be-Baba-Leba
TTITLE1=Cecil Grant - I Wonder
TTITLE2=Jack McVea and his All Stars - Bartender Boogie
TTITLE3=Louis Jordan and his Timpani Five - Choo Choo Ch'Boogie
TTITLE4=Roy Milton and his Solid Senders - Red Light
TTITLE5=Eddie 'Cleanhead' Vinson and his Orchestra - Old Maid Boogie
TTITLE6=Wynonie Harris and his All Stars - Good Rockin' Tonight
TTITLE7=Wild Bill Moore and his Band - We're Gonna Rock, We're Gonna Roll
TTITLE8=T-Bone Walker and his Band - T-Bone Shuffle
TTITLE9=The Orioles - It's Too Soon To Know
TTITLE10=Hal Singer Sextette - Cornbread
TTITLE11=Louis Jordan and his Timpani Five - Saturday Night Fish Fry (Parts 1 and 2)
TTITLE12=Professor Longhair (Roy Byrd) and his New Orleans Boys - Mardi Gras In New Orleans
TTITLE13=Fats Domino - The Fat Man
TTITLE14=The Treniers - Everybody Get Together
TTITLE15=Ruth Brown with Budd Johnson's Orchestra - Teardrops From My Eyes
TTITLE16=The Johnny Otis Orchestra - Rockin' Blues
TTITLE17=Joe Liggins and his Honeydrippers - Pink Champagne
TTITLE18=Earl Bostic and his Orchestra - Flamingo
TTITLE19=Tiny Bradshaw and his Orchestra - The Train Kept On A'Rollin'
TTITLE20=Bullmoose Jackson and his Buffalo Bearcats - Big Ten Inch (Record of The Blues
TTITLE21=Roy Brown and his Orchestra - Hurry, Hurry, Baby
TTITLE22=Lloyd Price with Dave Bartholomew and his Orchestra - Lawdy Miss Clawdy
TTITLE23=Dave Bartholomew and his Orchestra - My Ding-A-Ling
TTITLE24=Big Jay McNeely - Nervous, Man, Nervous
TTITLE25=Amos Milburn and his Chickenshackers - Rock, Rock, Rock
EXTD=Smith and Co SCCD 1105 - This is a U.K. release consisting of a collection of various Rhythm and Blues originslly released between the end of WW 2 and the "start" of Rock and Roll in the Mid 50's. This genre didn't receive wide airplay at the time, and i
EXTD=n fact was classified as "race" music. Nonetheless, the blues base of the songs, coupled with a more uptempo shuffle beat is one of the seminal components of early rock and roll. If one listens to early rock and roll songs by white artists, the con
EXTD=nection is unmistakable. It is indeed unfortunate that these artists did not receive wider recognition, for the majority of these songs are prime examples of pre- rock n, roll era and contributed greatly to the subsequent revolution in American mus
EXTD=ic.\n\nRalph Matthews
EXTT0=
EXTT1=
EXTT2=
EXTT3=
EXTT4=
EXTT5=
EXTT6=
EXTT7=
EXTT8=
EXTT9=
EXTT10=
EXTT11=
EXTT12=
EXTT13=
EXTT14=
EXTT15=
EXTT16=
EXTT17=
EXTT18=
EXTT19=
EXTT20=
EXTT21=
EXTT22=
EXTT23=
EXTT24=
EXTT25=
PLAYORDER=
